<svg width="500" height="203" viewBox="0 0 500 203" fill="none" xmlns="http://www.w3.org/2000/svg">
<path d="M235.704 26.728C238.435 26.728 241.421 27.368 244.664 28.648C247.651 29.8427 249.144 32.104 249.144 35.432V123.624C249.144 127.72 246.627 129.768 241.592 129.768C236.557 129.768 234.04 127.72 234.04 123.624V57.832L230.328 57.448L225.208 74.088L209.848 125.288C208.909 128.275 206.605 129.725 202.936 129.64C201.315 129.555 199.907 129.128 198.712 128.36C197.517 127.592 196.707 126.483 196.28 125.032L187.064 95.208C185.187 89.32 183.309 83.3467 181.432 77.288C179.555 71.144 177.507 64.36 175.288 56.936L171.576 57.448V123.624C171.576 127.72 169.059 129.768 164.024 129.768C158.989 129.768 156.472 127.72 156.472 123.624V35.432C156.472 32.1893 157.965 29.928 160.952 28.648C164.109 27.368 167.139 26.7707 170.04 26.856C171.32 26.856 172.643 27.0267 174.008 27.368C175.373 27.7093 176.653 28.2213 177.848 28.904C179.043 29.5013 180.109 30.312 181.048 31.336C181.987 32.2747 182.712 33.384 183.224 34.664L203.32 103.144C204.771 98.1093 206.307 92.648 207.928 86.76C209.549 80.872 211.213 74.8987 212.92 68.84C214.627 62.7813 216.291 56.808 217.912 50.92C219.619 44.9467 221.197 39.4 222.648 34.28C223.16 33.0853 223.885 32.0187 224.824 31.08C225.763 30.1413 226.829 29.3733 228.024 28.776C229.219 28.0933 230.456 27.5813 231.736 27.24C233.101 26.8987 234.424 26.728 235.704 26.728Z" fill="#5000ED"/>
<path d="M350.752 70.504C352.971 70.504 355.275 70.9733 357.664 71.912C360.053 72.8507 362.357 74.088 364.576 75.624H364.448C366.667 77.16 368.373 79.2507 369.568 81.896C370.763 84.5413 371.36 87.5707 371.36 90.984V108.52C371.36 115.432 369.056 120.595 364.448 124.008C362.229 125.629 359.925 126.909 357.536 127.848C355.232 128.701 352.971 129.128 350.752 129.128H322.848C320.629 129.128 318.325 128.701 315.936 127.848C313.632 126.909 311.371 125.629 309.152 124.008C304.544 120.595 302.24 115.432 302.24 108.52V100.072C302.24 96.0613 304.757 94.056 309.792 94.056C314.912 94.056 317.472 96.0613 317.472 100.072V107.496C317.472 109.715 318.112 111.72 319.392 113.512C320.672 115.304 322.891 116.2 326.048 116.2H347.552C350.709 116.2 352.928 115.304 354.208 113.512C355.488 111.72 356.128 109.715 356.128 107.496V92.008C356.128 89.8747 355.488 87.912 354.208 86.12C352.928 84.2427 350.709 83.304 347.552 83.304H322.848C318.411 83.304 313.845 81.6827 309.152 78.44C304.544 74.856 302.24 69.6933 302.24 62.952V47.72C302.24 44.3067 302.837 41.32 304.032 38.76C305.227 36.1147 306.933 33.9813 309.152 32.36H309.024C311.243 30.9093 313.547 29.7147 315.936 28.776C318.325 27.8373 320.629 27.368 322.848 27.368H350.752C352.971 27.368 355.275 27.8373 357.664 28.776C360.053 29.7147 362.357 30.9093 364.576 32.36H364.448C366.667 33.9813 368.373 36.1147 369.568 38.76C370.763 41.32 371.36 44.3067 371.36 47.72V55.272C371.36 59.2827 368.8 61.288 363.68 61.288C358.645 61.288 356.128 59.2827 356.128 55.272V48.872C356.128 46.7387 355.488 44.776 354.208 42.984C352.928 41.192 350.709 40.296 347.552 40.296H326.048C322.891 40.296 320.672 41.192 319.392 42.984C318.112 44.776 317.472 46.7387 317.472 48.872V61.928C317.472 64.1467 318.112 66.152 319.392 67.944C320.672 69.6507 322.891 70.504 326.048 70.504H350.752Z" fill="#FF6666"/>
<path d="M17.792 81.968V70.704C29.9093 65.584 41.728 60.5067 53.248 55.472C64.8533 50.4373 76.7147 45.3173 88.832 40.112V51.504L30.848 76.336C32.8107 77.1893 35.072 78.1707 37.632 79.28C40.2773 80.3893 43.7333 81.8827 48 83.76C52.2667 85.6373 57.6427 87.984 64.128 90.8C70.6987 93.616 78.9333 97.1147 88.832 101.296V112.688L17.792 81.968Z" fill="black"/>
<path d="M482.208 78.032V89.296C470.091 94.416 458.272 99.4933 446.752 104.528C435.147 109.563 423.285 114.683 411.168 119.888V108.496L469.152 83.664C467.189 82.8107 464.928 81.8293 462.368 80.72C459.723 79.6107 456.267 78.1173 452 76.24C447.733 74.3627 442.357 72.016 435.872 69.2C429.301 66.384 421.067 62.8853 411.168 58.704V47.312L482.208 78.032Z" fill="black"/>
<path d="M113.368 192.656C113.368 193.68 112.739 194.192 111.48 194.192C110.221 194.192 109.592 193.68 109.592 192.656V170.512C109.592 170.021 109.731 169.584 110.008 169.2C110.285 168.795 110.819 168.592 111.608 168.592H122.488C123.256 168.592 123.661 169.125 123.704 170.192C123.747 171.28 123.341 171.824 122.488 171.824H113.368V192.656ZM121.56 180.784C121.56 181.147 121.485 181.499 121.336 181.84C121.208 182.16 121.016 182.437 120.76 182.672C120.525 182.907 120.248 183.099 119.928 183.248C119.608 183.376 119.256 183.44 118.872 183.44C118.147 183.44 117.528 183.184 117.016 182.672C116.504 182.16 116.248 181.531 116.248 180.784C116.248 180.037 116.504 179.408 117.016 178.896C117.528 178.384 118.147 178.128 118.872 178.128C119.256 178.128 119.608 178.203 119.928 178.352C120.248 178.48 120.525 178.672 120.76 178.928C121.016 179.163 121.208 179.44 121.336 179.76C121.485 180.08 121.56 180.421 121.56 180.784ZM130.353 192.656C130.353 193.68 129.766 194.192 128.593 194.192C127.377 194.192 126.769 193.68 126.769 192.656V179.408C126.769 177.659 127.292 176.443 128.337 175.76C129.382 175.077 130.588 174.736 131.953 174.736H135.601C136.39 174.736 136.785 175.237 136.785 176.24C136.828 177.243 136.433 177.744 135.601 177.744H132.209C131.441 177.744 130.94 177.893 130.705 178.192C130.47 178.491 130.353 178.907 130.353 179.44V192.656ZM149.731 174.736C150.285 174.736 150.851 174.853 151.427 175.088C152.024 175.323 152.6 175.621 153.155 175.984H153.123C153.677 176.389 154.104 176.923 154.403 177.584C154.701 178.224 154.851 178.971 154.851 179.824V188.912C154.851 190.661 154.275 191.952 153.123 192.784C151.992 193.595 150.861 194 149.731 194H144.611C144.056 194 143.491 193.904 142.915 193.712C142.339 193.52 141.773 193.211 141.219 192.784C140.067 191.973 139.491 190.683 139.491 188.912V179.824C139.491 178.971 139.64 178.224 139.939 177.584C140.237 176.923 140.664 176.389 141.219 175.984H141.187C141.72 175.621 142.285 175.323 142.883 175.088C143.48 174.853 144.056 174.736 144.611 174.736H149.731ZM149.155 190.992C149.944 190.992 150.499 190.768 150.819 190.32C151.16 189.872 151.331 189.392 151.331 188.88V179.856C151.331 179.323 151.16 178.843 150.819 178.416C150.499 177.968 149.944 177.744 149.155 177.744H145.187C144.397 177.744 143.832 177.968 143.491 178.416C143.171 178.843 143.011 179.323 143.011 179.856V188.88C143.011 189.392 143.171 189.872 143.491 190.32C143.832 190.768 144.397 190.992 145.187 190.992H149.155ZM162.417 192.656C162.417 193.68 161.83 194.192 160.657 194.192C159.484 194.192 158.897 193.68 158.897 192.656V179.792C158.897 178.917 159.036 178.16 159.313 177.52C159.59 176.88 160.028 176.357 160.625 175.952C161.756 175.141 162.886 174.736 164.017 174.736H169.169C170.257 174.736 171.388 175.141 172.561 175.952C173.713 176.763 174.289 178.043 174.289 179.792V192.656C174.289 193.68 173.702 194.192 172.529 194.192C171.356 194.192 170.769 193.68 170.769 192.656V180.08C170.769 179.525 170.598 178.992 170.257 178.48L170.289 178.512C170.012 178 169.446 177.744 168.593 177.744H164.593C163.718 177.744 163.142 178 162.865 178.512C162.566 178.96 162.417 179.483 162.417 180.08V192.656ZM182.62 177.744V189.392C182.62 189.947 182.738 190.373 182.972 190.672C183.207 190.971 183.708 191.12 184.476 191.12H185.308C186.14 191.12 186.535 191.611 186.492 192.592C186.492 193.595 186.098 194.096 185.308 194.096H184.252C183.57 194.096 182.93 194.011 182.332 193.84C181.735 193.648 181.159 193.381 180.604 193.04V193.072C179.559 192.389 179.036 191.173 179.036 189.424V177.744H177.788C177.02 177.744 176.615 177.243 176.572 176.24C176.572 175.237 176.978 174.736 177.788 174.736H179.036V171.312C179.036 170.288 179.644 169.776 180.86 169.776C182.034 169.776 182.62 170.288 182.62 171.312V174.736H185.276C186.108 174.736 186.503 175.237 186.46 176.24C186.46 177.243 186.066 177.744 185.276 177.744H182.62ZM192.792 188.88C192.792 189.392 192.952 189.872 193.272 190.32C193.613 190.768 194.179 190.992 194.968 190.992H198.968C199.757 190.992 200.312 190.8 200.632 190.416C200.973 190.011 201.144 189.552 201.144 189.04V188.688C201.144 187.685 201.731 187.184 202.904 187.184C204.077 187.184 204.664 187.685 204.664 188.688V189.072C204.664 189.968 204.515 190.704 204.216 191.28C203.939 191.856 203.512 192.357 202.936 192.784C201.805 193.595 200.675 194 199.544 194H194.168C193.037 194 191.939 193.595 190.872 192.784C190.36 192.357 189.965 191.824 189.688 191.184C189.411 190.523 189.272 189.765 189.272 188.912V179.792C189.272 178.064 189.805 176.784 190.872 175.952C191.405 175.568 191.949 175.269 192.504 175.056C193.08 174.821 193.635 174.704 194.168 174.704H199.544C200.056 174.704 200.621 174.811 201.24 175.024C201.859 175.216 202.435 175.483 202.968 175.824C203.48 176.187 203.885 176.688 204.184 177.328C204.504 177.968 204.664 178.725 204.664 179.6V183.92C204.664 184.411 204.515 184.848 204.216 185.232C203.939 185.616 203.416 185.808 202.648 185.808H195.736C194.968 185.808 194.563 185.307 194.52 184.304C194.52 183.301 194.925 182.8 195.736 182.8H201.176L201.144 179.824C201.144 179.291 200.973 178.811 200.632 178.384C200.312 177.936 199.757 177.712 198.968 177.712H194.968C194.179 177.712 193.613 177.936 193.272 178.384C192.952 178.811 192.792 179.291 192.792 179.824V188.88ZM212.261 192.656C212.261 193.68 211.674 194.192 210.501 194.192C209.327 194.192 208.741 193.68 208.741 192.656V179.792C208.741 178.917 208.879 178.16 209.157 177.52C209.434 176.88 209.871 176.357 210.469 175.952C211.599 175.141 212.73 174.736 213.861 174.736H219.013C220.101 174.736 221.231 175.141 222.405 175.952C223.557 176.763 224.133 178.043 224.133 179.792V192.656C224.133 193.68 223.546 194.192 222.373 194.192C221.199 194.192 220.613 193.68 220.613 192.656V180.08C220.613 179.525 220.442 178.992 220.101 178.48L220.133 178.512C219.855 178 219.29 177.744 218.437 177.744H214.437C213.562 177.744 212.986 178 212.709 178.512C212.41 178.96 212.261 179.483 212.261 180.08V192.656ZM240.144 177.744H233.968C233.093 177.744 232.517 178 232.24 178.512C231.941 178.96 231.792 179.483 231.792 180.08V189.296C231.792 189.851 231.963 190.277 232.304 190.576C232.645 190.853 233.211 190.992 234 190.992H237.296C238.064 190.992 238.448 191.493 238.448 192.496C238.448 192.923 238.352 193.285 238.16 193.584C237.989 193.861 237.701 194 237.296 194H233.424C232.08 194 230.885 193.659 229.84 192.976C228.795 192.336 228.272 191.12 228.272 189.328V179.792C228.272 178.917 228.411 178.16 228.688 177.52C228.965 176.88 229.403 176.357 230 175.952C231.131 175.141 232.261 174.736 233.392 174.736H240.144V169.936C240.144 168.912 240.731 168.4 241.904 168.4C243.077 168.4 243.664 168.912 243.664 169.936V192.656C243.664 193.68 243.077 194.192 241.904 194.192C241.456 194.192 241.051 194.117 240.688 193.968C240.325 193.797 240.144 193.435 240.144 192.88V177.744ZM269.075 190.8C269.864 190.8 270.419 190.576 270.739 190.128C271.059 189.68 271.219 189.179 271.219 188.624V173.968C271.219 173.435 271.059 172.944 270.739 172.496C270.419 172.048 269.864 171.824 269.075 171.824H261.587L261.555 192.688C261.555 193.157 261.373 193.531 261.011 193.808C260.648 194.085 260.2 194.224 259.667 194.224C258.408 194.224 257.779 193.712 257.779 192.688V170.512C257.779 169.744 257.971 169.232 258.355 168.976C258.76 168.72 259.24 168.592 259.795 168.592H269.875C270.429 168.592 271.005 168.709 271.603 168.944C272.2 169.179 272.776 169.477 273.331 169.84H273.299C273.853 170.245 274.28 170.779 274.579 171.44C274.877 172.08 275.027 172.827 275.027 173.68V188.88C275.027 190.608 274.451 191.899 273.299 192.752C272.744 193.157 272.168 193.477 271.571 193.712C270.995 193.925 270.429 194.032 269.875 194.032H264.499C264.136 194.032 263.848 193.883 263.635 193.584C263.443 193.285 263.347 192.891 263.347 192.4C263.347 191.333 263.805 190.8 264.723 190.8H269.075ZM283.105 188.88C283.105 189.392 283.265 189.872 283.585 190.32C283.926 190.768 284.491 190.992 285.281 190.992H289.281C290.07 190.992 290.625 190.8 290.945 190.416C291.286 190.011 291.457 189.552 291.457 189.04V188.688C291.457 187.685 292.043 187.184 293.217 187.184C294.39 187.184 294.977 187.685 294.977 188.688V189.072C294.977 189.968 294.827 190.704 294.529 191.28C294.251 191.856 293.825 192.357 293.249 192.784C292.118 193.595 290.987 194 289.857 194H284.481C283.35 194 282.251 193.595 281.185 192.784C280.673 192.357 280.278 191.824 280.001 191.184C279.723 190.523 279.585 189.765 279.585 188.912V179.792C279.585 178.064 280.118 176.784 281.185 175.952C281.718 175.568 282.262 175.269 282.817 175.056C283.393 174.821 283.947 174.704 284.481 174.704H289.857C290.369 174.704 290.934 174.811 291.553 175.024C292.171 175.216 292.747 175.483 293.281 175.824C293.793 176.187 294.198 176.688 294.497 177.328C294.817 177.968 294.977 178.725 294.977 179.6V183.92C294.977 184.411 294.827 184.848 294.529 185.232C294.251 185.616 293.729 185.808 292.961 185.808H286.049C285.281 185.808 284.875 185.307 284.833 184.304C284.833 183.301 285.238 182.8 286.049 182.8H291.489L291.457 179.824C291.457 179.291 291.286 178.811 290.945 178.384C290.625 177.936 290.07 177.712 289.281 177.712H285.281C284.491 177.712 283.926 177.936 283.585 178.384C283.265 178.811 283.105 179.291 283.105 179.824V188.88ZM305.581 194.192C305.539 194.192 305.485 194.181 305.421 194.16C305.357 194.16 305.293 194.16 305.229 194.16C305.123 194.16 304.973 194.16 304.781 194.16C304.589 194.16 304.408 194.149 304.237 194.128C303.875 194.107 303.565 194.011 303.309 193.84C303.053 193.648 302.872 193.424 302.765 193.168L297.389 176.656C297.283 176.208 297.336 175.813 297.549 175.472C297.784 175.109 298.147 174.843 298.637 174.672C298.787 174.629 298.936 174.597 299.085 174.576C299.235 174.555 299.363 174.544 299.469 174.544C300.131 174.544 300.589 174.907 300.845 175.632L303.181 182.896L305.645 190.512L310.445 175.632C310.68 174.885 311.107 174.512 311.725 174.512C311.96 174.512 312.259 174.565 312.621 174.672C313.176 174.821 313.56 175.077 313.773 175.44C313.987 175.781 314.019 176.187 313.869 176.656L308.525 193.168C308.333 193.765 307.832 194.085 307.021 194.128C306.979 194.128 306.925 194.128 306.861 194.128C306.819 194.149 306.776 194.16 306.733 194.16C306.563 194.181 306.413 194.192 306.285 194.192C306.157 194.192 306.04 194.192 305.933 194.192H305.581ZM320.23 188.88C320.23 189.392 320.39 189.872 320.71 190.32C321.051 190.768 321.616 190.992 322.406 190.992H326.406C327.195 190.992 327.75 190.8 328.07 190.416C328.411 190.011 328.582 189.552 328.582 189.04V188.688C328.582 187.685 329.168 187.184 330.342 187.184C331.515 187.184 332.102 187.685 332.102 188.688V189.072C332.102 189.968 331.952 190.704 331.654 191.28C331.376 191.856 330.95 192.357 330.374 192.784C329.243 193.595 328.112 194 326.982 194H321.606C320.475 194 319.376 193.595 318.31 192.784C317.798 192.357 317.403 191.824 317.126 191.184C316.848 190.523 316.71 189.765 316.71 188.912V179.792C316.71 178.064 317.243 176.784 318.31 175.952C318.843 175.568 319.387 175.269 319.942 175.056C320.518 174.821 321.072 174.704 321.606 174.704H326.982C327.494 174.704 328.059 174.811 328.678 175.024C329.296 175.216 329.872 175.483 330.406 175.824C330.918 176.187 331.323 176.688 331.622 177.328C331.942 177.968 332.102 178.725 332.102 179.6V183.92C332.102 184.411 331.952 184.848 331.654 185.232C331.376 185.616 330.854 185.808 330.086 185.808H323.174C322.406 185.808 322 185.307 321.958 184.304C321.958 183.301 322.363 182.8 323.174 182.8H328.614L328.582 179.824C328.582 179.291 328.411 178.811 328.07 178.384C327.75 177.936 327.195 177.712 326.406 177.712H322.406C321.616 177.712 321.051 177.936 320.71 178.384C320.39 178.811 320.23 179.291 320.23 179.824V188.88ZM339.826 192.752C339.826 193.755 339.24 194.256 338.066 194.256C336.872 194.256 336.274 193.755 336.274 192.752V169.808C336.274 168.805 336.872 168.304 338.066 168.304C339.24 168.304 339.826 168.805 339.826 169.808V192.752ZM354.481 174.736C355.035 174.736 355.601 174.853 356.177 175.088C356.774 175.323 357.35 175.621 357.905 175.984H357.873C358.427 176.389 358.854 176.923 359.153 177.584C359.451 178.224 359.601 178.971 359.601 179.824V188.912C359.601 190.661 359.025 191.952 357.873 192.784C356.742 193.595 355.611 194 354.481 194H349.361C348.806 194 348.241 193.904 347.665 193.712C347.089 193.52 346.523 193.211 345.969 192.784C344.817 191.973 344.241 190.683 344.241 188.912V179.824C344.241 178.971 344.39 178.224 344.689 177.584C344.987 176.923 345.414 176.389 345.969 175.984H345.937C346.47 175.621 347.035 175.323 347.633 175.088C348.23 174.853 348.806 174.736 349.361 174.736H354.481ZM353.905 190.992C354.694 190.992 355.249 190.768 355.569 190.32C355.91 189.872 356.081 189.392 356.081 188.88V179.856C356.081 179.323 355.91 178.843 355.569 178.416C355.249 177.968 354.694 177.744 353.905 177.744H349.937C349.147 177.744 348.582 177.968 348.241 178.416C347.921 178.843 347.761 179.323 347.761 179.856V188.88C347.761 189.392 347.921 189.872 348.241 190.32C348.582 190.768 349.147 190.992 349.937 190.992H353.905ZM370.111 194C369.343 194 368.938 193.499 368.895 192.496C368.895 191.493 369.3 190.992 370.111 190.992H373.343C374.132 190.992 374.687 190.768 375.007 190.32C375.348 189.872 375.519 189.392 375.519 188.88V179.856C375.519 179.323 375.348 178.832 375.007 178.384C374.687 177.915 374.122 177.701 373.311 177.744H367.167V196.976C367.167 197.979 366.58 198.48 365.407 198.48C364.234 198.48 363.647 197.968 363.647 196.944V176.624C363.647 175.877 363.839 175.376 364.223 175.12C364.607 174.864 365.076 174.736 365.631 174.736H373.919C374.474 174.736 375.028 174.832 375.583 175.024C376.159 175.216 376.746 175.483 377.343 175.824C377.855 176.187 378.26 176.699 378.559 177.36C378.879 178 379.039 178.757 379.039 179.632V189.104C379.039 190.853 378.474 192.101 377.343 192.848C376.148 193.616 375.007 194 373.919 194H370.111ZM386.573 188.88C386.573 189.392 386.733 189.872 387.053 190.32C387.395 190.768 387.96 190.992 388.749 190.992H392.749C393.539 190.992 394.093 190.8 394.413 190.416C394.755 190.011 394.925 189.552 394.925 189.04V188.688C394.925 187.685 395.512 187.184 396.685 187.184C397.859 187.184 398.445 187.685 398.445 188.688V189.072C398.445 189.968 398.296 190.704 397.997 191.28C397.72 191.856 397.293 192.357 396.717 192.784C395.587 193.595 394.456 194 393.325 194H387.949C386.819 194 385.72 193.595 384.653 192.784C384.141 192.357 383.747 191.824 383.469 191.184C383.192 190.523 383.053 189.765 383.053 188.912V179.792C383.053 178.064 383.587 176.784 384.653 175.952C385.187 175.568 385.731 175.269 386.285 175.056C386.861 174.821 387.416 174.704 387.949 174.704H393.325C393.837 174.704 394.403 174.811 395.021 175.024C395.64 175.216 396.216 175.483 396.749 175.824C397.261 176.187 397.667 176.688 397.965 177.328C398.285 177.968 398.445 178.725 398.445 179.6V183.92C398.445 184.411 398.296 184.848 397.997 185.232C397.72 185.616 397.197 185.808 396.429 185.808H389.517C388.749 185.808 388.344 185.307 388.301 184.304C388.301 183.301 388.707 182.8 389.517 182.8H394.957L394.925 179.824C394.925 179.291 394.755 178.811 394.413 178.384C394.093 177.936 393.539 177.712 392.749 177.712H388.749C387.96 177.712 387.395 177.936 387.053 178.384C386.733 178.811 386.573 179.291 386.573 179.824V188.88ZM405.978 192.656C405.978 193.68 405.391 194.192 404.218 194.192C403.002 194.192 402.394 193.68 402.394 192.656V179.408C402.394 177.659 402.917 176.443 403.962 175.76C405.007 175.077 406.213 174.736 407.578 174.736H411.226C412.015 174.736 412.41 175.237 412.41 176.24C412.453 177.243 412.058 177.744 411.226 177.744H407.834C407.066 177.744 406.565 177.893 406.33 178.192C406.095 178.491 405.978 178.907 405.978 179.44V192.656Z" fill="#85FF9E"/>
</svg>
